<?xml version="1.0" standalone="no"?>
<!DOCTYPE svg PUBLIC "-//W3C//DTD SVG 20010904//EN"
 "http://www.w3.org/TR/2001/REC-SVG-20010904/DTD/svg10.dtd">
<svg version="1.0" xmlns="http://www.w3.org/2000/svg"
 width="500.000000pt" height="500.000000pt" viewBox="0 0 500.000000 500.000000"
 preserveAspectRatio="xMidYMid meet">
<metadata>
Created by potrace 1.11, written by Peter Selinger 2001-2013
</metadata>
<g transform="translate(0.000000,500.000000) scale(0.100000,-0.100000)"
fill="#000000" stroke="none">
<path d="M4265 3374 c-547 -104 -811 -154 -850 -160 -16 -3 -50 -9 -75 -14
-39 -8 -156 -31 -240 -46 -14 -2 -59 -11 -100 -19 -41 -8 -88 -17 -105 -19
-16 -3 -61 -11 -98 -18 l-69 -13 7 -30 c5 -24 75 -393 89 -470 13 -68 59 -312
61 -320 1 -5 5 -32 10 -58 7 -45 9 -48 34 -43 14 3 37 7 51 10 14 2 63 12 110
21 47 9 96 18 110 21 14 2 59 11 100 19 41 8 88 17 104 19 16 3 52 10 80 15
28 6 62 13 76 15 43 7 401 74 490 92 47 9 96 18 110 21 14 2 180 34 370 70
190 36 351 65 358 66 12 0 12 17 -2 77 -3 14 -8 39 -10 55 -4 24 -37 200 -71
375 -6 30 -4 23 -46 243 -18 99 -38 177 -43 176 -6 -1 -209 -39 -451 -85z"/>
<path d="M1819 2842 c0 -20 -1 -229 -1 -465 -1 -480 1 -496 63 -558 71 -71
206 -83 367 -33 l54 17 -6 46 c-3 25 -8 56 -10 67 -3 12 -7 38 -10 59 -8 50
-14 57 -36 45 -28 -15 -87 -12 -104 6 -20 19 -18 -21 -20 449 l-1 400 -147 2
-148 2 -1 -37z"/>
<path d="M2445 2821 c-90 -18 -86 -11 -66 -115 6 -32 9 -62 6 -66 -3 -4 -26
-11 -52 -15 -86 -12 -93 -15 -89 -39 2 -11 10 -50 16 -85 l13 -63 36 6 c113
20 121 20 122 0 1 -11 2 -23 3 -29 1 -5 5 -34 10 -62 4 -29 12 -53 17 -53 12
0 159 29 175 35 8 2 7 25 -4 80 -9 45 -11 80 -6 85 5 4 32 11 59 14 88 12 83
5 66 102 l-15 86 -35 -7 c-20 -4 -47 -9 -61 -11 -14 -3 -31 -7 -38 -9 -7 -3
-16 5 -21 18 -8 23 -22 105 -20 121 1 9 -21 27 -31 25 -3 -1 -41 -9 -85 -18z"/>
<path d="M1610 2580 c-49 -14 -96 -43 -138 -89 l-42 -46 2 63 3 62 -35 1 c-42
1 -162 1 -207 0 l-33 -1 0 -400 0 -400 149 0 148 0 0 234 c1 129 4 239 7 245
19 30 127 64 211 66 11 0 23 5 27 10 4 6 8 67 7 136 l-1 126 -36 0 c-20 0 -48
-3 -62 -7z"/>
<path d="M178 2570 l-23 -6 1 -279 c0 -154 3 -298 6 -320 22 -163 151 -237
348 -201 53 10 131 50 166 84 l31 31 20 -43 c34 -69 115 -93 243 -73 l46 8 -1
118 c0 117 -1 120 -28 145 l-27 25 0 256 c0 163 -4 255 -10 256 -5 0 -53 1
-105 1 -52 0 -115 -1 -139 -1 l-44 -1 1 -246 1 -247 -32 -28 c-35 -32 -93 -46
-131 -33 -43 15 -49 56 -49 312 0 128 -2 236 -6 239 -7 7 -238 10 -268 3z"/>
</g>
</svg>
